<svg width="1440" height="1024" viewBox="0 0 1440 1024" fill="none" xmlns="http://www.w3.org/2000/svg">
<rect width="1440" height="1024" fill="white"/>
<path d="M453 239.5H1134C1141.46 239.5 1147.5 245.544 1147.5 253V330C1147.5 337.456 1141.46 343.5 1134 343.5H453C445.544 343.5 439.5 337.456 439.5 330V253C439.5 245.544 445.544 239.5 453 239.5Z" stroke="black" stroke-width="3"/>
<path d="M453 459.5H1134C1141.46 459.5 1147.5 465.544 1147.5 473V550C1147.5 557.456 1141.46 563.5 1134 563.5H453C445.544 563.5 439.5 557.456 439.5 550V473C439.5 465.544 445.544 459.5 453 459.5Z" stroke="black" stroke-width="3"/>
<path d="M453 239.5H1134C1141.46 239.5 1147.5 245.544 1147.5 253V330C1147.5 337.456 1141.46 343.5 1134 343.5H453C445.544 343.5 439.5 337.456 439.5 330V253C439.5 245.544 445.544 239.5 453 239.5Z" stroke="black" stroke-width="3"/>
<path d="M484 146.5H534C541.456 146.5 547.5 152.544 547.5 160V210C547.5 217.456 541.456 223.5 534 223.5H484C476.544 223.5 470.5 217.456 470.5 210V160C470.5 152.544 476.544 146.5 484 146.5Z" stroke="black" stroke-width="3"/>
<path d="M624 146.5H674C681.456 146.5 687.5 152.544 687.5 160V210C687.5 217.456 681.456 223.5 674 223.5H624C616.544 223.5 610.5 217.456 610.5 210V160C610.5 152.544 616.544 146.5 624 146.5Z" stroke="black" stroke-width="3"/>
<path d="M764 146.5H814C821.456 146.5 827.5 152.544 827.5 160V210C827.5 217.456 821.456 223.5 814 223.5H764C756.544 223.5 750.5 217.456 750.5 210V160C750.5 152.544 756.544 146.5 764 146.5Z" stroke="black" stroke-width="3"/>
<path d="M904 146.5H954C961.456 146.5 967.5 152.544 967.5 160V210C967.5 217.456 961.456 223.5 954 223.5H904C896.544 223.5 890.5 217.456 890.5 210V160C890.5 152.544 896.544 146.5 904 146.5Z" stroke="black" stroke-width="3"/>
<path d="M1044 146.5H1094C1101.46 146.5 1107.5 152.544 1107.5 160V210C1107.5 217.456 1101.46 223.5 1094 223.5H1044C1036.54 223.5 1030.5 217.456 1030.5 210V160C1030.5 152.544 1036.54 146.5 1044 146.5Z" stroke="black" stroke-width="3"/>
<path d="M453 679.5H1134C1141.46 679.5 1147.5 685.544 1147.5 693V770C1147.5 777.456 1141.46 783.5 1134 783.5H453C445.544 783.5 439.5 777.456 439.5 770V693C439.5 685.544 445.544 679.5 453 679.5Z" stroke="black" stroke-width="3"/>
<path d="M226 166.5H267C274.456 166.5 280.5 172.544 280.5 180V818C280.5 825.456 274.456 831.5 267 831.5H226C218.544 831.5 212.5 825.456 212.5 818V180C212.5 172.544 218.544 166.5 226 166.5Z" stroke="black" stroke-width="3"/>
</svg>
